# xmcd
#
# Track frame offsets:
#	150
#	11298
#	25596
#	39144
#	49242
#	60765
#	73638
#	86211
#	101109
#	115932
#	131355
#	143028
#	157251
#	171774
#	184647
#	198870
#	212418
#	223116
#	237789
#	251037
#	264135
#	276783
#	290556
#	302679
#	314502
#	326925
#
# Disc length: 4523 seconds
#
# Revision: 0
# Processed by: cddbd v1.5.2PL0 Copyright (c) Steve Scherf et al.
# Submitted via: EasyCDDAExtractor 9.0.0.1
#
DISCID=7111a91a
DTITLE=Teresa Brewer - Music! Music! Music!
DYEAR=2008
DGENRE=Easy Listening
TTITLE0=Too Young To Tango
TTITLE1=Baby, Baby,Baby
TTITLE2=Le Grand Tour De L'Amour
TTITLE3=Jilted
TTITLE4=Let Me Go,Lover!
TTITLE5=Skinnie Minnie Fish Tail
TTITLE6=Au Revoir
TTITLE7=Music! Music! Music!
TTITLE8=Darktown Strutters Ball - Sing Sing Sing
TTITLE9=A Man Wrote A Song
TTITLE10=When The Train Came In
TTITLE11=Ol' Man Mose
TTITLE12=The Jazz Me Blues
TTITLE13=Copenhagen
TTITLE14=Choo'n Gum
TTITLE15=Honky Tonkin'
TTITLE16=The Thing
TTITLE17=I Guess I'll Have To Dream The Rest
TTITLE18=Long For You
TTITLE19=Gonna Get Along Without You Now
TTITLE20=Into Each Life Some Rain Must Fall
TTITLE21=Till I Waltz Again With You
TTITLE22=You'll Never Get Away
TTITLE23=Bell Bottom Blues
TTITLE24=Our Heartbreaking Waltz
TTITLE25=Ricochet Romance
EXTD=
EXTT0=
EXTT1=
EXTT2=
EXTT3=
EXTT4=
EXTT5=
EXTT6=
EXTT7=
EXTT8=
EXTT9=
EXTT10=
EXTT11=
EXTT12=
EXTT13=
EXTT14=
EXTT15=
EXTT16=
EXTT17=
EXTT18=
EXTT19=
EXTT20=
EXTT21=
EXTT22=
EXTT23=
EXTT24=
EXTT25=
PLAYORDER=
